nColumns=19
nRows=25
DataType=double
version=3
OpenSimVersion=4.1
endheader
time	ground_force_calcn_r_vx	ground_force_calcn_r_vy	ground_force_calcn_r_vz	ground_force_calcn_r_px	ground_force_calcn_r_py	ground_force_calcn_r_pz	ground_force_calcn_r_mx	ground_force_calcn_r_my	ground_force_calcn_r_mz	ground_force_calcn_l_vx	ground_force_calcn_l_vy	ground_force_calcn_l_vz	ground_force_calcn_l_px	ground_force_calcn_l_py	ground_force_calcn_l_pz	ground_force_calcn_l_mx	ground_force_calcn_l_my	ground_force_calcn_l_mz
6.51	-4.98625	354.45	-96.2271	-0.208662	0	-0.430217	0.0271678	-1.93124	0.524298	-5.26581	358.172	97.61	-0.205774	0	-0.924789	-0.0284862	1.93758	0.528035
6.52	-5.35967	351.966	-98.5202	-0.208004	0	-0.429662	0.0257195	-1.68898	0.472769	-5.25128	356.362	99.9513	-0.20499	0	-0.925088	-0.0232525	1.57796	0.442581
6.53	-5.71574	349.737	-100.522	-0.207377	0	-0.429209	0.0236482	-1.447	0.415897	-5.15284	354.617	101.914	-0.204228	0	-0.925288	-0.0177134	1.21903	0.35034
6.54	-6.0552	347.76	-102.242	-0.206784	0	-0.428852	0.0210381	-1.20825	0.35523	-4.97325	352.919	103.517	-0.203493	0	-0.9254	-0.0122006	0.865799	0.253953
6.55	-6.37906	346.022	-103.694	-0.206229	0	-0.428592	0.0179834	-0.975484	0.292326	-4.72143	351.25	104.78	-0.202789	0	-0.925438	-0.0070206	0.522297	0.155805
6.56	-6.68839	344.5	-104.887	-0.205714	0	-0.428424	0.0145826	-0.751106	0.228684	-4.41073	349.589	105.724	-0.202113	0	-0.92541	-0.00241866	0.191699	0.0579748
6.57	-6.98247	343.162	-105.837	-0.205244	0	-0.428344	0.0109337	-0.537349	0.165727	-4.05547	347.911	106.372	-0.201461	0	-0.925331	0.00144072	-0.123596	-0.0377891
6.58	-7.25727	341.979	-106.556	-0.204826	0	-0.428345	0.00713572	-0.336252	0.104771	-3.66902	346.19	106.75	-0.200829	0	-0.925213	0.00447154	-0.421912	-0.130099
6.59	-7.50446	340.924	-107.06	-0.204468	0	-0.428422	0.00329481	-0.149682	0.0470043	-3.26449	344.399	106.885	-0.200209	0	-0.925069	0.00665664	-0.702265	-0.217949
6.6	-7.71226	339.973	-107.366	-0.204179	0	-0.428568	-0.000472419	0.0208253	-0.00657679	-2.8553	342.511	106.807	-0.199597	0	-0.924909	0.00803836	-0.964253	-0.300688
6.61	-7.86864	339.106	-107.495	-0.203965	0	-0.428772	-0.00404109	0.174154	-0.0552059	-2.45364	340.505	106.546	-0.198987	0	-0.924744	0.00870238	-1.20768	-0.377891
6.62	-7.96486	338.298	-107.465	-0.20383	0	-0.429026	-0.00729183	0.309712	-0.0983841	-2.06905	338.363	106.129	-0.198377	0	-0.924582	0.00875793	-1.43224	-0.449227
6.63	-7.99714	337.523	-107.298	-0.203769	0	-0.42932	-0.01013	0.427543	-0.135916	-1.70847	336.073	105.58	-0.197767	0	-0.924427	0.0083242	-1.63745	-0.514418
6.64	-7.96602	336.746	-107.016	-0.203774	0	-0.42964	-0.0124985	0.528348	-0.167906	-1.37644	333.626	104.921	-0.19716	0	-0.924283	0.00751969	-1.82265	-0.573199
6.65	-7.87431	335.931	-106.637	-0.203834	0	-0.429978	-0.0143781	0.613394	-0.194715	-1.07559	331.018	104.172	-0.19656	0	-0.924154	0.00645673	-1.98709	-0.625338
6.66	-7.72513	335.036	-106.179	-0.203931	0	-0.43032	-0.015779	0.68433	-0.216877	-0.806857	328.254	103.35	-0.195972	0	-0.924042	0.00523618	-2.13024	-0.670701
6.67	-7.52169	334.022	-105.656	-0.204052	0	-0.430654	-0.0167288	0.742892	-0.234987	-0.570142	325.342	102.473	-0.195397	0	-0.92395	0.00394631	-2.25189	-0.70928
6.68	-7.26861	332.858	-105.079	-0.204179	0	-0.43097	-0.0172664	0.790698	-0.249614	-0.366825	322.291	101.555	-0.194839	0	-0.923878	0.00267728	-2.35224	-0.741199
6.69	-6.97231	331.521	-104.458	-0.204298	0	-0.431255	-0.0174372	0.829106	-0.261242	-0.201462	319.111	100.609	-0.194297	0	-0.923831	0.00153523	-2.43175	-0.766684
6.7	-6.63893	329.997	-103.799	-0.204398	0	-0.431506	-0.017283	0.859074	-0.270218	-0.0810365	315.816	99.6499	-0.193767	0	-0.923807	0.000639152	-2.49091	-0.78596
6.71	-6.27183	328.285	-103.106	-0.204475	0	-0.431719	-0.0168344	0.881157	-0.27675	-0.0128645	312.428	98.6889	-0.193249	0	-0.923806	0.000104185	-2.53024	-0.799246
6.72	-5.87246	326.388	-102.382	-0.204526	0	-0.431894	-0.0161169	0.895769	-0.280985	-0.00310194	308.979	97.7385	-0.192742	0	-0.923826	2.5605e-05	-2.55048	-0.806784
6.73	-5.44324	324.319	-101.626	-0.204551	0	-0.432034	-0.0151624	0.903404	-0.283085	-0.0564129	305.508	96.8097	-0.192245	0	-0.923863	0.000471326	-2.5525	-0.808839
6.74	-4.98992	322.092	-100.84	-0.204552	0	-0.432142	-0.0140138	0.904573	-0.283201	-0.176242	302.055	95.9104	-0.191761	0	-0.923912	0.00148055	-2.53746	-0.80571
6.75	-4.5224	319.73	-100.019	-0.204529	0	-0.432225	-0.0127253	0.899669	-0.281437	-0.364742	298.661	95.0439	-0.191289	0	-0.923971	0.00306152	-2.50686	-0.797766
